<svg xmlns="http://www.w3.org/2000/svg" viewBox="640.3 177.7 570.5 572.7"><path fill="#C8AEF6" d="m1040 208 26 15c16 9 31 20 44 32l18 17c37 40 61 87 70 140a274 274 0 0 1-87 256c-37 34-81 56-131 66l-1 1-35 4a251 251 0 0 1-98-11c-34-10-65-25-92-47l-32-29a274 274 0 0 1-72-151 276 276 0 0 1 71-229l24-22a267 267 0 0 1 153-65 278 278 0 0 1 139 22l3 1m52 378h1l1-2s-1 0 0 0c4-7 3-11-1-13l-1-1h-2c-9-3-8 7-12 10l-2-1 4-10c-6 0-8 4-9 8 0 4 1 8 5 9s7-1 9-5l3-7c2 4 2 6 0 8l-3 5 1 1 5-1 1-1m-19 45h1l1-2s-1 0 0 0c2-3 3-6-1-9v-1h-1l-1-1h-3l-12 6c-2-8 8-4 7-9-4-3-9-1-11 4-2 3-2 6 1 8 2 3 5 3 8 1l5-4 3 1v3l-4 2-6 3c5 4 9 2 13-1v-1m-24 23-2-4v-1l-4-4v-1l-3-3v-1l-5-4c-5 1-6 4-5 8l2 7-7-5c-3-4-6-4-10 0h-2c-6 0-4 3-4 6l-1 12-3-3-3-10-2-3h-2l-1 1-2 4c1 4 1 8 3 11 1 3 4 5 6 6l10-2 1-1s-1 0 0 0c5-4 2-9 3-12l4 11c5-1 5-1 4-6l-1-6h1l4 4c2 3 4 4 8 2l1-10c3 2 3 8 9 5l1-1m-212 11 15 2c24 0 46-5 68-16 6-3 12-3 18 0l30 11c12 3 12 3 15-10l-37-12 1-2 10-8c30-21 51-49 60-85 4-17 4-33-3-49a48 48 0 0 0-73-21l-12 10-8-7c-10-9-22-13-34-13-25 1-46 21-48 46-2 23 2 44 13 64 12 24 30 42 52 58l8 5-2 2c-21 9-43 14-66 11-14-1-25-7-35-15-18-15-24-35-25-57-2-26 5-51 17-75 20-40 49-70 91-87 24-10 48-10 72-1 29 11 52 30 71 54 16 19 27 42 34 66 1 2 2 4 4 3l11-4a200 200 0 0 0-69-105 123 123 0 0 0-138-22 191 191 0 0 0-100 118c-8 26-11 51-4 77 8 33 29 54 64 62m43-384-2 15 2 23c4 19 12 35 26 47 16 15 40 13 53-4 20-26 23-54 15-84-7-25-27-37-53-35-20 2-36 17-41 38m-121 57c2 27 15 47 38 61 9 5 18 10 28 9 19-2 29-14 32-29 6-24 0-46-14-66a46 46 0 0 0-84 25m-73 77-2 7c-2 16 3 29 12 42 11 15 26 23 43 28 9 3 18 3 27 0 13-6 20-17 21-32 2-21-5-39-18-55-11-13-24-21-42-20s-35 12-41 30m471 47 4-6c9-12 11-26 8-40-4-16-15-28-31-32-16-5-32-2-45 10a76 76 0 0 0-23 66c1 13 7 25 20 30 13 6 26 3 39-3 11-6 20-14 28-25m-76-105c5-13 7-25 5-39-3-15-12-26-26-31s-28-4-40 6a62 62 0 0 0-21 42c-3 18-1 35 10 51 8 11 21 16 34 10 19-7 30-21 38-39m-13 233 3 3c6 2 6 2 2 8l-7-2c-2 4-2 4 1 5l14 5c4 2 4 2 6-3l-9-3 3-6c4-1 9 6 10-3l-18-6c-3-2-4-1-5 2m22-34c-1-3 0-5 3-6l1-4-3-1-18 10c-2 1-2 4 0 5l22 7 1-2-4-4-2-5m-44 70-8 7 14 17c10-7 11-8 7-11-3 0-5 7-8 1l5-5-3-3c-6 4-6 4-8 1l6-6-5-1Z"/><path fill="#FAC423" d="M837 665c-35-8-56-29-64-62-7-26-4-51 4-77a196 196 0 0 1 101-119c12-6 26-9 40-10 17-2 34 0 50 5 18 6 33 16 47 28a195 195 0 0 1 69 105l-11 4c-2 1-3-1-4-3-7-24-18-47-34-66-19-24-42-43-71-54-24-9-48-9-72 1-42 17-71 47-91 87-12 24-19 49-17 75 1 22 7 42 25 57 10 8 21 14 35 15 23 3 45-2 66-11l2-2-8-5c-22-16-40-34-52-58-11-20-15-41-13-64 2-25 23-45 48-46 12 0 24 4 34 13l8 7 12-10c27-20 61-8 73 21 7 16 7 32 3 49-9 36-30 64-60 85l-10 8-1 2 37 12c-3 13-3 13-15 10l-30-11c-6-3-12-3-18 0-22 11-44 16-68 16l-15-2m156-97c8-17 14-34 12-53-1-14-11-29-24-33-18-6-36 2-45 20-1 3-3 6-7 6s-6-3-8-6c-3-5-7-11-12-15-9-9-27-9-38-3-12 7-17 18-18 31-3 21 4 40 14 58 13 24 33 41 56 54 4 3 8 3 12 0l12-7c19-13 36-30 46-52Z"/><path fill="#FAC424" d="M880 281c5-21 21-36 41-38 26-2 46 10 53 35 8 30 5 58-15 84a36 36 0 0 1-53 4 81 81 0 0 1-26-47l-2-23 2-15m75 62c10-22 14-44 3-67-6-12-17-19-30-20-13 0-24 6-30 18-6 10-7 21-5 33 2 18 8 35 22 48 10 10 22 10 32-1l8-11ZM759 337c2-16 9-29 24-37 20-11 46-6 60 13 14 20 20 42 14 66-3 15-13 27-32 29-10 1-19-4-28-9a73 73 0 0 1-38-62m78 50c2-4 5-7 6-12 4-15 2-30-6-44-5-10-12-18-22-21-11-4-21-2-30 6-10 8-13 20-10 31 6 22 19 38 41 45 8 2 15 2 21-5ZM686 414c6-17 23-28 41-29s31 7 42 20c13 16 20 34 18 55-1 15-8 26-21 32-9 3-18 3-27 0-17-5-32-13-43-28-9-13-14-26-12-42l2-8m14 28c10 21 26 34 49 37 14 2 23-6 24-20s-3-26-10-38c-7-11-17-20-31-22-22-3-42 21-32 43Z"/><path fill="#FAC423" d="M1157 463c-8 10-17 18-28 24-13 6-26 9-39 3-13-5-19-17-20-30-3-25 4-48 23-66 13-12 29-15 45-10 16 4 27 16 31 32 3 14 1 28-8 40l-4 7m-4-49c-3-3-5-8-8-10-15-13-36-10-48 6a67 67 0 0 0-13 46c0 8 2 15 9 20 10 6 20 4 30-2 9-5 17-11 23-20 9-12 13-25 7-40Z"/><path fill="#FAC426" d="M1081 357c-8 18-19 32-38 39-13 6-26 1-34-10a70 70 0 0 1-10-51c2-17 8-31 21-42 12-10 26-11 40-6s23 16 26 31c2 14 0 26-5 39m-49 29 13-4c21-14 31-35 29-60-1-15-13-26-29-26-14 0-23 8-28 20-8 16-9 33-4 50 3 9 7 18 19 20Z"/><path fill="#583596" d="m1024 654 2 6c1 5 1 5-4 6l-4-11v-1l-1-5-1-1v-2c3-4 6-4 9 0l7 5-2-7c-1-4 0-7 5-8l5 5 3 4 3 5h1l2 4h-1l-1 1c-5 3-5-3-9-5l-2-4 1 14c-3 2-5 1-7-2l-5-5-1-1v2ZM1091 587l-5 1-1-1 3-5c2-2 2-4 0-8l-3 7c-2 4-5 6-9 5s-5-5-5-9c1-4 3-8 9-8l-4 10 2 1c4-3 3-13 13-10l2 1v13s1 0 0 0l-1 2-1 1ZM1069 590c0-3 1-4 4-2l18 6c-1 9-6 2-10 3l-3 6 9 3c-2 5-2 5-6 3l-14-5c-3-1-3-1-1-5l7 2c4-6 4-6-2-8l-2-3ZM1072 632c-3 3-7 5-12 1l6-3 4-2v-3l-3-1-5 4c-3 2-6 2-8-1-3-2-3-5-1-8 2-5 7-7 11-4 1 5-9 1-7 9l12-6 4 1 1 1v9s1 0 0 0l-1 2-1 1ZM1090 557l2 4 4 4-1 2-22-7c-2-1-2-4 0-5l18-10 3 1-1 4c-3 1-4 3-3 7ZM1013 668l-9 2c-2-1-5-3-6-6-2-3-2-7-3-11 0-2 1-3 3-4l1-1 1 1 2 12c1 4 3 5 7 3v-12c0-3-2-6 4-6 1 7 5 14 1 21 0 0 1 0 0 0l-1 1ZM1046 626l5 1-6 6c2 3 2 3 8-1l3 3-5 5c3 6 5-1 8-1 4 3 3 4-7 11l-14-17 8-7Z"/><path fill="#D1B4B8" d="M1015 667c3-7-1-14-2-21h3v2l1 2 1 4c-1 4 2 9-3 13ZM1008 664c-3 2-5 1-6-3l-2-12 2 2 3 10 3 3ZM1038 660l-2-14 2 4v10ZM1094 584l-1-13c4 2 5 6 1 13ZM1075 629l-1-9c4 3 3 6 1 9ZM1040 641l-4-5 4 5ZM1047 650l-4-5 4 5ZM1049 654l-3-4 3 4ZM1043 645l-3-4 3 4ZM1072 619l-2-1 2 1ZM1074 631v-2 2ZM1093 586v-2 2ZM1091 587l1-1-1 1ZM1074 620l-1-1 1 1ZM1014 668v-1 1ZM1092 571l-1-1 1 1ZM1072 632l1-1-1 1ZM999 648l-1 1 1-1ZM1048 655v-1 1Z"/><path fill="#C9AFF6" d="M993 568c-10 22-27 39-46 52l-12 7c-4 3-8 3-12 0-23-13-43-30-56-54a98 98 0 0 1-14-58c1-13 6-24 18-31 11-6 29-6 38 3 5 4 9 10 12 15 2 3 4 6 8 6s6-3 7-6c9-18 27-26 45-20 13 4 23 19 24 33 2 19-4 36-12 53Z"/><path fill="#C9AFF5" d="m954 344-7 10c-10 11-22 11-32 1a75 75 0 0 1-22-48c-2-12-1-23 5-33 6-12 17-18 30-18 13 1 24 8 30 20 11 23 7 45-4 68Z"/><path fill="#C9AFF4" d="M837 388c-6 6-13 6-21 4-22-7-35-23-41-45-3-11 0-23 10-31 9-8 19-10 30-6 10 3 17 11 22 21 8 14 10 29 6 44-1 5-4 8-6 13Z"/><path fill="#C9AFF5" d="M700 442c-10-22 10-46 32-43 14 2 24 11 31 22 7 12 11 24 10 38s-10 22-24 20c-23-3-39-16-49-37Z"/><path fill="#C9AFF4" d="M1153 415c6 14 2 27-7 39-6 9-14 15-23 20-10 6-20 8-30 2-7-5-9-12-9-20-2-17 3-32 13-46 12-16 33-19 48-6 3 2 5 7 8 11ZM1032 386c-12-2-16-11-19-20-5-17-4-34 4-50 5-12 14-20 28-20 16 0 28 11 29 26 2 25-8 46-29 60l-13 4Z"/><path fill="#C8AEF6" d="m1018 654-1-4 1 4ZM1016 648v-2 2ZM1025 654l-1-2 1 1v1Z"/></svg>